<?xml version="1.0" encoding="UTF-8" standalone="no"?>
<!DOCTYPE svg PUBLIC "-//W3C//DTD SVG 1.1//EN"
 "http://www.w3.org/Graphics/SVG/1.1/DTD/svg11.dtd">
<!-- Generated by graphviz version 2.36.0 (20140111.2315)
 -->
<!-- Title: controllers_diagram Pages: 1 -->
<svg width="570pt" height="536pt"
 viewBox="0.00 0.00 570.00 536.00" xmlns="http://www.w3.org/2000/svg" xmlns:xlink="http://www.w3.org/1999/xlink">
<g id="graph0" class="graph" transform="scale(1 1) rotate(0) translate(4 532)">
<title>controllers_diagram</title>
<polygon fill="none" stroke="none" points="-4,4 -4,-532 566,-532 566,4 -4,4"/>
<!-- _diagram_info -->
<g id="node1" class="node"><title>_diagram_info</title>
<text text-anchor="start" x="348" y="-216.6" font-family="Times,serif" font-size="13.00">Controllers diagram</text>
<text text-anchor="start" x="348" y="-202.6" font-family="Times,serif" font-size="13.00">Date: Dec 28 2015 &#45; 22:38</text>
<text text-anchor="start" x="348" y="-188.6" font-family="Times,serif" font-size="13.00">Migration version: 20151227033445</text>
<text text-anchor="start" x="348" y="-174.6" font-family="Times,serif" font-size="13.00">Generated by RailRoady 1.4.2</text>
<text text-anchor="start" x="348" y="-160.6" font-family="Times,serif" font-size="13.00">http://railroady.prestonlee.com</text>
</g>
<!-- TpaController -->
<g id="node2" class="node"><title>TpaController</title>
<path fill="none" stroke="black" d="M352,-272.5C352,-272.5 421,-272.5 421,-272.5 427,-272.5 433,-278.5 433,-284.5 433,-284.5 433,-458.5 433,-458.5 433,-464.5 427,-470.5 421,-470.5 421,-470.5 352,-470.5 352,-470.5 346,-470.5 340,-464.5 340,-458.5 340,-458.5 340,-284.5 340,-284.5 340,-278.5 346,-272.5 352,-272.5"/>
<text text-anchor="middle" x="386.5" y="-455.3" font-family="Times,serif" font-size="14.00">TpaController</text>
<polyline fill="none" stroke="black" points="340,-447.5 433,-447.5 "/>
<text text-anchor="start" x="348" y="-432.3" font-family="Times,serif" font-size="14.00">audit</text>
<text text-anchor="start" x="348" y="-417.3" font-family="Times,serif" font-size="14.00">create</text>
<text text-anchor="start" x="348" y="-402.3" font-family="Times,serif" font-size="14.00">destroy</text>
<text text-anchor="start" x="348" y="-387.3" font-family="Times,serif" font-size="14.00">edit</text>
<text text-anchor="start" x="348" y="-372.3" font-family="Times,serif" font-size="14.00">index</text>
<text text-anchor="start" x="348" y="-357.3" font-family="Times,serif" font-size="14.00">new</text>
<text text-anchor="start" x="348" y="-342.3" font-family="Times,serif" font-size="14.00">show</text>
<text text-anchor="start" x="348" y="-327.3" font-family="Times,serif" font-size="14.00">update</text>
<polyline fill="none" stroke="black" points="340,-319.5 433,-319.5 "/>
<polyline fill="none" stroke="black" points="340,-295.5 433,-295.5 "/>
<text text-anchor="start" x="348" y="-280.3" font-family="Times,serif" font-size="14.00">_layout</text>
</g>
<!-- ControlPanelController -->
<g id="node3" class="node"><title>ControlPanelController</title>
<path fill="none" stroke="black" d="M182,-374.5C182,-374.5 301,-374.5 301,-374.5 307,-374.5 313,-380.5 313,-386.5 313,-386.5 313,-515.5 313,-515.5 313,-521.5 307,-527.5 301,-527.5 301,-527.5 182,-527.5 182,-527.5 176,-527.5 170,-521.5 170,-515.5 170,-515.5 170,-386.5 170,-386.5 170,-380.5 176,-374.5 182,-374.5"/>
<text text-anchor="middle" x="241.5" y="-512.3" font-family="Times,serif" font-size="14.00">ControlPanelController</text>
<polyline fill="none" stroke="black" points="170,-504.5 313,-504.5 "/>
<text text-anchor="start" x="178" y="-489.3" font-family="Times,serif" font-size="14.00">create</text>
<text text-anchor="start" x="178" y="-474.3" font-family="Times,serif" font-size="14.00">destroy</text>
<text text-anchor="start" x="178" y="-459.3" font-family="Times,serif" font-size="14.00">file</text>
<text text-anchor="start" x="178" y="-444.3" font-family="Times,serif" font-size="14.00">index</text>
<text text-anchor="start" x="178" y="-429.3" font-family="Times,serif" font-size="14.00">new</text>
<polyline fill="none" stroke="black" points="170,-421.5 313,-421.5 "/>
<polyline fill="none" stroke="black" points="170,-397.5 313,-397.5 "/>
<text text-anchor="start" x="178" y="-382.3" font-family="Times,serif" font-size="14.00">_layout</text>
</g>
<!-- StaticPagesController -->
<g id="node4" class="node"><title>StaticPagesController</title>
<path fill="none" stroke="black" d="M352,-0.5C352,-0.5 462,-0.5 462,-0.5 468,-0.5 474,-6.5 474,-12.5 474,-12.5 474,-111.5 474,-111.5 474,-117.5 468,-123.5 462,-123.5 462,-123.5 352,-123.5 352,-123.5 346,-123.5 340,-117.5 340,-111.5 340,-111.5 340,-12.5 340,-12.5 340,-6.5 346,-0.5 352,-0.5"/>
<text text-anchor="middle" x="407" y="-108.3" font-family="Times,serif" font-size="14.00">StaticPagesController</text>
<polyline fill="none" stroke="black" points="340,-100.5 474,-100.5 "/>
<text text-anchor="start" x="348" y="-85.3" font-family="Times,serif" font-size="14.00">about</text>
<text text-anchor="start" x="348" y="-70.3" font-family="Times,serif" font-size="14.00">help</text>
<text text-anchor="start" x="348" y="-55.3" font-family="Times,serif" font-size="14.00">home</text>
<polyline fill="none" stroke="black" points="340,-47.5 474,-47.5 "/>
<polyline fill="none" stroke="black" points="340,-23.5 474,-23.5 "/>
<text text-anchor="start" x="348" y="-8.3" font-family="Times,serif" font-size="14.00">_layout</text>
</g>
<!-- ApplicationController -->
<g id="node5" class="node"><title>ApplicationController</title>
<path fill="none" stroke="black" d="M12,-238.5C12,-238.5 124,-238.5 124,-238.5 130,-238.5 136,-244.5 136,-250.5 136,-250.5 136,-364.5 136,-364.5 136,-370.5 130,-376.5 124,-376.5 124,-376.5 12,-376.5 12,-376.5 6,-376.5 0,-370.5 0,-364.5 0,-364.5 0,-250.5 0,-250.5 0,-244.5 6,-238.5 12,-238.5"/>
<text text-anchor="middle" x="68" y="-361.3" font-family="Times,serif" font-size="14.00">ApplicationController</text>
<polyline fill="none" stroke="black" points="0,-353.5 136,-353.5 "/>
<text text-anchor="start" x="8" y="-338.3" font-family="Times,serif" font-size="14.00">correct_user</text>
<text text-anchor="start" x="8" y="-323.3" font-family="Times,serif" font-size="14.00">current_user</text>
<text text-anchor="start" x="8" y="-308.3" font-family="Times,serif" font-size="14.00">require_user</text>
<text text-anchor="start" x="8" y="-293.3" font-family="Times,serif" font-size="14.00">same_user</text>
<polyline fill="none" stroke="black" points="0,-285.5 136,-285.5 "/>
<polyline fill="none" stroke="black" points="0,-261.5 136,-261.5 "/>
<text text-anchor="start" x="8" y="-246.3" font-family="Times,serif" font-size="14.00">_layout</text>
</g>
<!-- SessionsController -->
<g id="node6" class="node"><title>SessionsController</title>
<path fill="none" stroke="black" d="M29,-68.5C29,-68.5 124,-68.5 124,-68.5 130,-68.5 136,-74.5 136,-80.5 136,-80.5 136,-194.5 136,-194.5 136,-200.5 130,-206.5 124,-206.5 124,-206.5 29,-206.5 29,-206.5 23,-206.5 17,-200.5 17,-194.5 17,-194.5 17,-80.5 17,-80.5 17,-74.5 23,-68.5 29,-68.5"/>
<text text-anchor="middle" x="76.5" y="-191.3" font-family="Times,serif" font-size="14.00">SessionsController</text>
<polyline fill="none" stroke="black" points="17,-183.5 136,-183.5 "/>
<text text-anchor="start" x="25" y="-168.3" font-family="Times,serif" font-size="14.00">create</text>
<text text-anchor="start" x="25" y="-153.3" font-family="Times,serif" font-size="14.00">destroy</text>
<text text-anchor="start" x="25" y="-138.3" font-family="Times,serif" font-size="14.00">index</text>
<text text-anchor="start" x="25" y="-123.3" font-family="Times,serif" font-size="14.00">new</text>
<polyline fill="none" stroke="black" points="17,-115.5 136,-115.5 "/>
<polyline fill="none" stroke="black" points="17,-91.5 136,-91.5 "/>
<text text-anchor="start" x="25" y="-76.3" font-family="Times,serif" font-size="14.00">_layout</text>
</g>
<!-- UsersController -->
<g id="node7" class="node"><title>UsersController</title>
<path fill="none" stroke="black" d="M471,-272.5C471,-272.5 550,-272.5 550,-272.5 556,-272.5 562,-278.5 562,-284.5 562,-284.5 562,-458.5 562,-458.5 562,-464.5 556,-470.5 550,-470.5 550,-470.5 471,-470.5 471,-470.5 465,-470.5 459,-464.5 459,-458.5 459,-458.5 459,-284.5 459,-284.5 459,-278.5 465,-272.5 471,-272.5"/>
<text text-anchor="middle" x="510.5" y="-455.3" font-family="Times,serif" font-size="14.00">UsersController</text>
<polyline fill="none" stroke="black" points="459,-447.5 562,-447.5 "/>
<text text-anchor="start" x="467" y="-432.3" font-family="Times,serif" font-size="14.00">create</text>
<text text-anchor="start" x="467" y="-417.3" font-family="Times,serif" font-size="14.00">destroy</text>
<text text-anchor="start" x="467" y="-402.3" font-family="Times,serif" font-size="14.00">edit</text>
<text text-anchor="start" x="467" y="-387.3" font-family="Times,serif" font-size="14.00">index</text>
<text text-anchor="start" x="467" y="-372.3" font-family="Times,serif" font-size="14.00">new</text>
<text text-anchor="start" x="467" y="-357.3" font-family="Times,serif" font-size="14.00">show</text>
<text text-anchor="start" x="467" y="-342.3" font-family="Times,serif" font-size="14.00">update</text>
<polyline fill="none" stroke="black" points="459,-334.5 562,-334.5 "/>
<polyline fill="none" stroke="black" points="459,-310.5 562,-310.5 "/>
<text text-anchor="start" x="467" y="-295.3" font-family="Times,serif" font-size="14.00">_layout</text>
<text text-anchor="start" x="467" y="-280.3" font-family="Times,serif" font-size="14.00">user_params</text>
</g>
<!-- FileUploadsController -->
<g id="node8" class="node"><title>FileUploadsController</title>
<path fill="none" stroke="black" d="M182,-119.5C182,-119.5 296,-119.5 296,-119.5 302,-119.5 308,-125.5 308,-131.5 308,-131.5 308,-320.5 308,-320.5 308,-326.5 302,-332.5 296,-332.5 296,-332.5 182,-332.5 182,-332.5 176,-332.5 170,-326.5 170,-320.5 170,-320.5 170,-131.5 170,-131.5 170,-125.5 176,-119.5 182,-119.5"/>
<text text-anchor="middle" x="239" y="-317.3" font-family="Times,serif" font-size="14.00">FileUploadsController</text>
<polyline fill="none" stroke="black" points="170,-309.5 308,-309.5 "/>
<text text-anchor="start" x="178" y="-294.3" font-family="Times,serif" font-size="14.00">create</text>
<text text-anchor="start" x="178" y="-279.3" font-family="Times,serif" font-size="14.00">destroy</text>
<text text-anchor="start" x="178" y="-264.3" font-family="Times,serif" font-size="14.00">edit</text>
<text text-anchor="start" x="178" y="-249.3" font-family="Times,serif" font-size="14.00">index</text>
<text text-anchor="start" x="178" y="-234.3" font-family="Times,serif" font-size="14.00">new</text>
<text text-anchor="start" x="178" y="-219.3" font-family="Times,serif" font-size="14.00">show</text>
<text text-anchor="start" x="178" y="-204.3" font-family="Times,serif" font-size="14.00">update</text>
<polyline fill="none" stroke="black" points="170,-196.5 308,-196.5 "/>
<polyline fill="none" stroke="black" points="170,-172.5 308,-172.5 "/>
<text text-anchor="start" x="178" y="-157.3" font-family="Times,serif" font-size="14.00">_layout</text>
<text text-anchor="start" x="178" y="-142.3" font-family="Times,serif" font-size="14.00">file_upload_params</text>
<text text-anchor="start" x="178" y="-127.3" font-family="Times,serif" font-size="14.00">set_file_upload</text>
</g>
</g>
</svg>
