<?xml version="1.0" encoding="UTF-8" standalone="no"?>
<!DOCTYPE svg PUBLIC "-//W3C//DTD SVG 1.1//EN"
 "http://www.w3.org/Graphics/SVG/1.1/DTD/svg11.dtd">
<!-- Generated by graphviz version 2.36.0 (20140111.2315)
 -->
<!-- Title: models_diagram Pages: 1 -->
<svg width="423pt" height="394pt"
 viewBox="0.00 0.00 423.00 394.00" xmlns="http://www.w3.org/2000/svg" xmlns:xlink="http://www.w3.org/1999/xlink">
<g id="graph0" class="graph" transform="scale(1 1) rotate(0) translate(4 390)">
<title>models_diagram</title>
<polygon fill="none" stroke="none" points="-4,4 -4,-390 419,-390 419,4 -4,4"/>
<!-- _diagram_info -->
<g id="node1" class="node"><title>_diagram_info</title>
<text text-anchor="start" x="7" y="-326.6" font-family="Times,serif" font-size="13.00">Models diagram</text>
<text text-anchor="start" x="7" y="-312.6" font-family="Times,serif" font-size="13.00">Date: Dec 28 2015 &#45; 22:37</text>
<text text-anchor="start" x="7" y="-298.6" font-family="Times,serif" font-size="13.00">Migration version: 20151227033445</text>
<text text-anchor="start" x="7" y="-284.6" font-family="Times,serif" font-size="13.00">Generated by RailRoady 1.4.2</text>
<text text-anchor="start" x="7" y="-270.6" font-family="Times,serif" font-size="13.00">http://railroady.prestonlee.com</text>
</g>
<!-- FileUpload -->
<g id="node2" class="node"><title>FileUpload</title>
<path fill="none" stroke="black" d="M258,-0.5C258,-0.5 388,-0.5 388,-0.5 394,-0.5 400,-6.5 400,-12.5 400,-12.5 400,-169.5 400,-169.5 400,-175.5 394,-181.5 388,-181.5 388,-181.5 258,-181.5 258,-181.5 252,-181.5 246,-175.5 246,-169.5 246,-169.5 246,-12.5 246,-12.5 246,-6.5 252,-0.5 258,-0.5"/>
<text text-anchor="middle" x="323" y="-166.3" font-family="Times,serif" font-size="14.00">FileUpload</text>
<polyline fill="none" stroke="black" points="246,-158.5 400,-158.5 "/>
<text text-anchor="start" x="254" y="-143.3" font-family="Times,serif" font-size="14.00">id :int(11)</text>
<text text-anchor="start" x="254" y="-128.3" font-family="Times,serif" font-size="14.00">fname :varchar(255)</text>
<text text-anchor="start" x="254" y="-113.3" font-family="Times,serif" font-size="14.00">owner :varchar(255)</text>
<text text-anchor="start" x="254" y="-98.3" font-family="Times,serif" font-size="14.00">ftype :varchar(255)</text>
<text text-anchor="start" x="254" y="-83.3" font-family="Times,serif" font-size="14.00">keywords :text</text>
<text text-anchor="start" x="254" y="-68.3" font-family="Times,serif" font-size="14.00">attachment :varchar(255)</text>
<text text-anchor="start" x="254" y="-53.3" font-family="Times,serif" font-size="14.00">created_at :datetime</text>
<text text-anchor="start" x="254" y="-38.3" font-family="Times,serif" font-size="14.00">updated_at :datetime</text>
<text text-anchor="start" x="254" y="-23.3" font-family="Times,serif" font-size="14.00">hash_val :varchar(255)</text>
<text text-anchor="start" x="254" y="-8.3" font-family="Times,serif" font-size="14.00">user_id :int(11)</text>
</g>
<!-- User -->
<g id="node3" class="node"><title>User</title>
<path fill="none" stroke="black" d="M243,-219C243,-219 403,-219 403,-219 409,-219 415,-225 415,-231 415,-231 415,-373 415,-373 415,-379 409,-385 403,-385 403,-385 243,-385 243,-385 237,-385 231,-379 231,-373 231,-373 231,-231 231,-231 231,-225 237,-219 243,-219"/>
<text text-anchor="middle" x="323" y="-369.8" font-family="Times,serif" font-size="14.00">User</text>
<polyline fill="none" stroke="black" points="231,-362 415,-362 "/>
<text text-anchor="start" x="239" y="-346.8" font-family="Times,serif" font-size="14.00">id :int(11)</text>
<text text-anchor="start" x="239" y="-331.8" font-family="Times,serif" font-size="14.00">first_name :varchar(255)</text>
<text text-anchor="start" x="239" y="-316.8" font-family="Times,serif" font-size="14.00">last_name :varchar(255)</text>
<text text-anchor="start" x="239" y="-301.8" font-family="Times,serif" font-size="14.00">email :varchar(255)</text>
<text text-anchor="start" x="239" y="-286.8" font-family="Times,serif" font-size="14.00">password_digest :varchar(255)</text>
<text text-anchor="start" x="239" y="-271.8" font-family="Times,serif" font-size="14.00">created_at :datetime</text>
<text text-anchor="start" x="239" y="-256.8" font-family="Times,serif" font-size="14.00">updated_at :datetime</text>
<text text-anchor="start" x="239" y="-241.8" font-family="Times,serif" font-size="14.00">date_of_birth :date</text>
<text text-anchor="start" x="239" y="-226.8" font-family="Times,serif" font-size="14.00">gender :varchar(255)</text>
</g>
<!-- User&#45;&gt;FileUpload -->
<g id="edge1" class="edge"><title>User&#45;&gt;FileUpload</title>
<path fill="none" stroke="#9c5442" d="M323,-210.913C323,-204.56 323,-198.134 323,-191.733"/>
<ellipse fill="none" stroke="#9c5442" cx="323" cy="-214.998" rx="4" ry="4"/>
<polygon fill="#9c5442" stroke="#9c5442" points="323,-191.707 327.5,-181.707 323,-186.707 323,-181.707 323,-181.707 323,-181.707 323,-186.707 318.5,-181.707 323,-191.707 323,-191.707"/>
</g>
</g>
</svg>
